<?xml version="1.0" encoding="UTF-8"?>
<svg version="1.1" xmlns="http://www.w3.org/2000/svg" width="512" height="512">
<path d="M0 0 C1.56893364 -0.00461468 3.13786295 -0.0109714 4.70678329 -0.01890898 C8.99760054 -0.0355476 13.28806017 -0.02738097 17.5788784 -0.0149641 C22.21427155 -0.00589346 26.8496043 -0.01989332 31.48498535 -0.03088379 C40.55760337 -0.04865211 49.63008889 -0.04483654 58.70271206 -0.03323323 C66.07749454 -0.02419254 73.45223993 -0.02297765 80.82702637 -0.02732849 C82.40261908 -0.02824789 82.40261908 -0.02824789 84.01004195 -0.02918586 C86.14402931 -0.03046479 88.27801666 -0.03176164 90.41200399 -0.03307623 C110.41327224 -0.04447709 130.41446711 -0.03137606 150.41572332 -0.00987476 C167.5704799 0.00799576 184.72512819 0.00489151 201.87988281 -0.0135498 C221.81053067 -0.03496523 241.74111425 -0.04337849 261.671772 -0.03110075 C263.79782358 -0.02982658 265.92387516 -0.0285691 268.04992676 -0.02732849 C269.09593166 -0.02671139 270.14193656 -0.02609429 271.21963859 -0.02545848 C278.58390076 -0.02200761 285.94812208 -0.02782829 293.31237793 -0.0372467 C302.28934238 -0.04847551 311.26616696 -0.04540804 320.24311543 -0.02412373 C324.8216045 -0.01362523 329.39986053 -0.00947101 333.97834778 -0.02272034 C338.17292685 -0.03467495 342.36705774 -0.02803139 346.56159639 -0.00681013 C348.0755928 -0.00235703 349.58962739 -0.0045812 351.10359907 -0.01431328 C362.30719872 -0.08078459 372.1959452 1.12890897 380.56377888 9.26769447 C390.95480037 21.68483415 390.43884724 34.66959272 390.32836914 50.13146973 C390.33622848 52.60665462 390.34707761 55.08183154 390.360672 57.55699158 C390.38534175 63.55254972 390.37760371 69.54724194 390.35375849 75.54273631 C390.33513505 80.41887203 390.33073175 85.2948348 390.3362484 90.17100143 C390.33703231 90.86780629 390.33781621 91.56461115 390.33862388 92.28253131 C390.34028983 93.69852211 390.34199362 95.11451285 390.34373482 96.53050356 C390.35848356 109.7729582 390.33127162 123.0150654 390.28891637 136.25744407 C390.25354534 147.59790638 390.25197347 158.9379545 390.27563477 170.27844238 C390.30315143 183.48000756 390.31130648 196.68133887 390.28769988 209.88291967 C390.28521864 211.29277949 390.28275517 212.70263935 390.28030968 214.11249924 C390.27908904 214.80600076 390.2778684 215.49950229 390.27661077 216.21401901 C390.26930513 221.08023134 390.27546736 225.94631812 390.28681374 230.81251907 C390.30161307 237.37096526 390.28402254 243.92880162 390.24517632 250.48718452 C390.23567822 252.88807279 390.23627108 255.28902636 390.24791718 257.68990517 C390.34861969 280.93146419 390.34861969 280.93146419 383.43847656 290.50793457 C383.02514478 291.13072611 382.61181299 291.75351765 382.185956 292.39518166 C379.27602447 296.3555884 375.72263703 298.32385277 371.43847656 300.50793457 C372.71722656 300.54918457 373.99597656 300.59043457 375.31347656 300.63293457 C383.63732799 301.57674135 389.81688037 306.27973475 395.02124023 312.58850098 C397.2933796 315.66577224 398.91659498 318.91110943 400.50097656 322.38293457 C400.87182373 323.18046143 401.2426709 323.97798828 401.62475586 324.79968262 C406.23278857 334.93772822 410.21694294 345.34373879 414.23028564 355.72767639 C414.50523865 356.43891159 414.78019165 357.15014679 415.06347656 357.88293457 C415.33923523 358.59646591 415.6149939 359.30999725 415.89910889 360.04515076 C417.83437105 365.02526992 419.86296551 369.95983358 421.93847656 374.88293457 C422.77485151 376.88846708 423.60979881 378.89458861 424.44442749 380.90084839 C425.22591988 382.76079967 426.02876379 384.61173488 426.83227539 386.46228027 C430.24293058 394.69451694 432.3861162 402.62007403 429.49682617 411.35461426 C426.09699498 419.27578958 420.32536041 424.55887561 412.4215729 427.86634213 C409.07117525 428.95029845 405.71483602 428.92156045 402.23367596 428.89104462 C401.43168263 428.89600413 400.62968931 428.90096365 399.80339316 428.90607345 C397.11711391 428.91902263 394.43133229 428.91064706 391.74504089 428.90234375 C389.79921708 428.90723297 387.85339617 428.91342292 385.9075802 428.92080164 C380.56111535 428.93722032 375.21479779 428.93487927 369.86831653 428.92942667 C364.10198646 428.92675886 358.33569587 428.94128363 352.56938171 428.95352173 C341.2725181 428.97458855 329.9757058 428.97911585 318.67882486 428.97733384 C309.49714818 428.97602682 300.31548752 428.9798273 291.13381386 428.98725891 C288.49021111 428.98935808 285.84660836 428.99145568 283.20300561 428.99355173 C281.8872547 428.99459526 280.57150378 428.99563879 279.21588162 428.99671394 C261.39665575 429.0104846 243.5774354 429.01783945 225.75820446 429.01338959 C225.06140871 429.01321763 224.36461297 429.01304568 223.6467022 429.01286851 C220.11510634 429.01197963 216.58351049 429.01103482 213.05191465 429.0100705 C212.35053548 429.00987947 211.64915631 429.00968844 210.92652323 429.00949161 C209.50816399 429.00910452 208.08980476 429.00871419 206.67144553 429.00832064 C184.60375613 429.00235115 162.53617161 429.01778674 140.46850586 429.04992676 C115.67173219 429.08601096 90.87502558 429.10529163 66.078224 429.10038805 C52.95020639 429.09814242 39.82229273 429.10340022 26.69429588 429.12828064 C15.51773129 429.14928213 4.34132767 429.1528971 -6.8352435 429.13398105 C-12.53776417 429.12481616 -18.23998462 429.12370362 -23.94248199 429.1443367 C-29.16419181 429.16302122 -34.38535498 429.15857108 -39.60704383 429.13579088 C-41.49461857 429.1315988 -43.38223503 429.13582552 -45.26976571 429.14938682 C-65.3659031 429.28392189 -65.3659031 429.28392189 -73.68012935 421.53282309 C-79.9253948 415.00945915 -82.00830598 408.80411869 -81.90795898 399.87121582 C-81.28765569 393.84915929 -78.89453137 388.64380507 -76.49902344 383.13293457 C-75.96338622 381.85693539 -75.43025117 380.57988344 -74.89941406 379.30187988 C-74.04809498 377.25331425 -73.19512555 375.20559173 -72.33456421 373.16088867 C-68.93872561 365.08510654 -65.74753808 356.92962774 -62.54885864 348.77423096 C-60.68331985 344.01976813 -58.81066302 339.26809103 -56.93196106 334.51881409 C-55.72999341 331.47964729 -54.53529506 328.43926499 -53.36914062 325.3861084 C-50.021922 316.69546759 -45.28401645 308.01825071 -36.85839844 303.36730957 C-32.25296412 301.64418789 -27.42710899 301.05125829 -22.56152344 300.50793457 C-23.14160156 300.17922363 -23.72167969 299.8505127 -24.31933594 299.51184082 C-32.46454482 294.55213442 -37.72854437 287.70040946 -40.56152344 278.50793457 C-40.98942598 275.05450449 -40.98382857 271.63215534 -40.96939087 268.15550232 C-40.9768931 267.12626052 -40.98439534 266.09701872 -40.99212492 265.03658777 C-41.0134228 261.59456992 -41.01334152 258.15289423 -41.01318359 254.71081543 C-41.02379952 252.23991366 -41.0356301 249.76901684 -41.04858398 247.29812622 C-41.07935751 240.58910849 -41.09051259 233.88022911 -41.09622622 227.17115855 C-41.09998413 222.97639051 -41.10879829 218.78164287 -41.11872482 214.58688545 C-41.1456586 202.9569531 -41.16817178 191.32704042 -41.1706028 179.69707394 C-41.17075837 178.95353601 -41.17091395 178.20999808 -41.17107423 177.44392869 C-41.17136528 175.93679591 -41.17165065 174.42966313 -41.17193039 172.92253035 C-41.17214467 171.80041945 -41.17214467 171.80041945 -41.17236328 170.65563965 C-41.17250295 169.90664497 -41.17264262 169.15765029 -41.17278652 168.3859588 C-41.17591891 156.26126617 -41.21248078 144.13693148 -41.26399954 132.01235693 C-41.31655572 119.54348988 -41.34271465 107.07479919 -41.34215391 94.60581881 C-41.34240581 87.61329678 -41.35349118 80.6211859 -41.39332962 73.62876701 C-41.43064124 67.04663898 -41.43142068 60.46519294 -41.40815735 53.88295364 C-41.40530549 51.47481336 -41.414286 49.0666237 -41.43633652 46.65858269 C-41.55995373 32.25924254 -41.29341207 20.74524936 -31.68663979 9.26800442 C-22.67617245 0.50189326 -11.91938476 -0.07661995 0 0 Z " fill="#CCD6DD" transform="translate(81.5615234375,83.4920654296875)"/>
<path d="M0 0 C1.20530078 -0.00384115 2.41060156 -0.00768229 3.6524266 -0.01163983 C4.96797881 -0.01077335 6.28353101 -0.00990687 7.63894844 -0.00901413 C9.05735738 -0.01159947 10.47576558 -0.0146131 11.89417279 -0.01801753 C15.78731685 -0.02607066 19.68044245 -0.02787616 23.57359385 -0.028615 C27.77409466 -0.03046843 31.97458596 -0.03801711 36.17508125 -0.04475021 C45.35678715 -0.05832086 54.53848867 -0.06435594 63.72020292 -0.06876087 C69.45348611 -0.07152477 75.18676762 -0.07576233 80.92004967 -0.08026505 C96.79538746 -0.09245478 112.67072391 -0.10275551 128.54606628 -0.10614014 C129.56170133 -0.1063597 130.57733638 -0.10657927 131.62374825 -0.10680549 C132.64179808 -0.10702377 133.65984792 -0.10724204 134.70874774 -0.10746694 C136.77167312 -0.1079104 138.8345985 -0.10835696 140.89752388 -0.10880661 C141.92080387 -0.10902804 142.94408386 -0.10924947 143.99837233 -0.10947761 C160.58571353 -0.11342714 177.17301084 -0.13088723 193.76033507 -0.15416613 C210.79211231 -0.17787586 227.82386751 -0.19034177 244.85566151 -0.19150805 C254.41774457 -0.19242489 263.9797704 -0.19817963 273.54183769 -0.21632767 C281.68229963 -0.23172335 289.82268665 -0.23685216 297.96316038 -0.22858956 C302.11604609 -0.22468152 306.26878087 -0.22562023 310.42164803 -0.23964691 C314.22515143 -0.25237614 318.02839035 -0.25119704 321.83189334 -0.2390562 C323.85575765 -0.23617138 325.8796265 -0.24804222 327.90345466 -0.26047826 C336.25022352 -0.21503987 342.38376465 0.01213348 348.87284279 5.74960709 C351.51179278 10.12682657 351.60765791 13.22714365 351.533144 18.24055862 C351.53953282 19.1480004 351.54592164 20.05544218 351.55250406 20.99038219 C351.56774475 24.02612956 351.54729856 27.06056992 351.52691841 30.09627151 C351.53041987 32.27459012 351.53607873 34.45290617 351.5437336 36.63121414 C351.55798743 42.54446596 351.54091375 48.45725311 351.51744843 54.37046051 C351.49734955 60.55762692 351.50321849 66.74477385 351.50555611 72.93196487 C351.50550252 83.32242374 351.48573933 93.71270083 351.45367622 104.10310745 C351.41678306 116.1171772 351.4080006 128.13096337 351.41497374 140.14508724 C351.42127821 151.7005542 351.41052543 163.25593945 351.39100838 174.81138992 C351.38283201 179.72991983 351.38012527 184.64840799 351.38170052 189.56694412 C351.38257923 195.35853198 351.36836648 201.14989339 351.34247398 206.94142151 C351.33530968 209.06747083 351.33322982 211.19354423 351.33659172 213.31960297 C351.3403043 216.22074692 351.32556632 219.12122921 351.30609322 222.02229691 C351.31142114 222.86451766 351.31674907 223.70673841 351.32223845 224.57448101 C351.25732419 230.17638004 350.35070646 234.51863275 346.37652779 238.77595901 C341.87013258 242.22202594 339.84820215 243.25605001 334.21347523 243.26844215 C332.99338817 243.2735167 331.77330112 243.27859124 330.51624173 243.28381956 C329.14998357 243.28442128 327.78372535 243.28492035 326.41746712 243.28532791 C324.97562313 243.28934107 323.53378028 243.29377905 322.09193879 243.29860747 C318.11556054 243.31059501 314.13919442 243.31622644 310.16280162 243.32078862 C305.87980275 243.32673639 301.59681847 243.3383482 297.31382942 243.34907913 C286.9637958 243.37362081 276.61375733 243.38823221 266.26370355 243.4011392 C263.34196398 243.40484963 260.4202249 243.40882298 257.4984858 243.41289186 C239.36682276 243.43812518 221.23515898 243.46018497 203.10348225 243.47262001 C198.90209831 243.47554985 194.7007144 243.4785115 190.49933052 243.48152542 C189.45505791 243.48227147 188.41078529 243.48301752 187.33486805 243.48378618 C170.40895545 243.49644648 153.48314774 243.52967767 136.5572842 243.57132725 C119.19229546 243.61370828 101.82736048 243.63731055 84.46232015 243.64254057 C74.70740078 243.64595889 64.95264536 243.65776352 55.19777679 243.69064331 C46.89204567 243.71859229 38.5865121 243.72966586 30.2807376 243.71844785 C26.04106353 243.71324807 21.80180349 243.71623294 17.5621891 243.74091339 C13.68267004 243.76330964 9.80386472 243.76274203 5.92433397 243.74370952 C4.51918995 243.74089589 3.11399853 243.74658342 1.70893111 243.76152246 C-10.11688174 243.87959263 -10.11688174 243.87959263 -13.34613895 240.72624016 C-13.92105737 239.86995207 -14.49597578 239.01366398 -15.08831596 238.13142776 C-15.66581596 237.43017776 -16.24331596 236.72892776 -16.83831596 236.00642776 C-19.67140324 231.75679685 -19.24492689 227.30039422 -19.25567436 222.39651871 C-19.26146775 221.49305134 -19.26726113 220.58958396 -19.27323008 219.65873879 C-19.29132734 216.61879723 -19.30217228 213.57887427 -19.31292534 210.53889847 C-19.32409828 208.36427007 -19.33561153 206.18964339 -19.34744072 204.01501846 C-19.38402426 196.86243975 -19.40921931 189.7098433 -19.43206596 182.55720901 C-19.43601183 181.34082237 -19.4399577 180.12443573 -19.44402313 178.87118888 C-19.48044004 167.40211215 -19.5118882 155.93302931 -19.53313255 144.46391392 C-19.56071833 129.78752531 -19.6115058 115.11169944 -19.69360685 100.43551189 C-19.74936531 90.11949294 -19.7783638 79.80360511 -19.78760576 69.48744076 C-19.79386798 63.32440618 -19.81203315 57.16193748 -19.85899162 50.99906731 C-19.902631 45.19997483 -19.91315428 39.40175825 -19.89836311 33.60252953 C-19.89869201 31.47566171 -19.91098706 29.34875651 -19.93621254 27.22203827 C-20.13922187 9.15094232 -20.13922187 9.15094232 -15.91265678 3.86645889 C-11.54118701 -0.24918541 -5.71607757 0.00686175 0 0 Z " fill="#5DADEB" transform="translate(90.08831596374512,113.86857223510742)"/>
<path d="M0 0 C1.30807055 -0.00829899 2.61614109 -0.01659798 3.96385014 -0.02514845 C5.41903516 -0.0242789 6.87422008 -0.02321027 8.32940483 -0.02196407 C9.87253366 -0.027847 11.41565942 -0.03458586 12.95878112 -0.04210895 C17.20603716 -0.06020337 21.45323114 -0.06570549 25.70052099 -0.06909573 C30.27875663 -0.07484867 34.85695231 -0.09197396 39.4351635 -0.10744381 C50.49480881 -0.14221337 61.55445086 -0.15778461 72.6141389 -0.17156711 C77.82196303 -0.17852709 83.02978319 -0.18768417 88.23760414 -0.1966753 C105.54886903 -0.22588112 122.86013003 -0.25067423 140.17141724 -0.26129913 C141.27961535 -0.26198983 142.38781347 -0.26268052 143.52959334 -0.26339215 C145.19588109 -0.26443017 145.19588109 -0.26443017 146.89583123 -0.26548916 C149.14687229 -0.26690116 151.39791334 -0.26832197 153.64895439 -0.26975155 C155.32384754 -0.2708093 155.32384754 -0.2708093 157.0325769 -0.27188843 C175.12224012 -0.28413676 193.21169368 -0.32692636 211.3012699 -0.38269175 C229.8720747 -0.43947596 248.44277352 -0.46994963 267.01366603 -0.47431129 C277.44114147 -0.4773933 287.86832572 -0.49189507 298.29571724 -0.53559208 C307.17589221 -0.57270047 316.05569717 -0.58587079 324.93593855 -0.56788719 C329.46598608 -0.55943578 333.99527814 -0.56226082 338.52522659 -0.59570599 C342.67590749 -0.6260794 346.82527491 -0.62388281 350.97596298 -0.59621798 C352.4740071 -0.59188509 353.97214308 -0.59928791 355.47005178 -0.619891 C364.97663135 -0.74242962 371.57322592 0.49863348 378.67922783 7.26564884 C383.10799398 12.69760162 385.02029864 19.12297265 387.25344658 25.66896915 C387.92694631 27.63399221 388.62245292 29.59025009 389.31985283 31.54689884 C391.53083513 37.87788591 393.47636846 43.51435578 392.67922783 50.26564884 C391.30422783 52.76564884 391.30422783 52.76564884 389.67922783 54.26564884 C389.01922783 54.26564884 388.35922783 54.26564884 387.67922783 54.26564884 C387.67922783 54.92564884 387.67922783 55.58564884 387.67922783 56.26564884 C382.29755342 58.48696771 377.49749756 58.55574227 371.7776165 58.54030704 C370.79633278 58.54541798 369.81504906 58.55052891 368.80402946 58.55579472 C365.568356 58.56966532 362.3328962 58.56873559 359.09719658 58.56643009 C356.84046665 58.57031887 354.58373746 58.57465392 352.3270092 58.57941532 C347.59860677 58.58687244 342.870279 58.58659024 338.14187431 58.58132267 C332.09612464 58.57553376 326.0506819 58.59244775 320.00498295 58.61566734 C315.34398945 58.63043362 310.68306933 58.63127234 306.02205658 58.62815762 C303.79382851 58.62866953 301.5655962 58.63388288 299.3373909 58.64396954 C296.21440163 58.65637029 293.09200328 58.64951979 289.96902275 58.63796329 C289.05703117 58.64560703 288.1450396 58.65325077 287.20541191 58.66112614 C280.88677493 58.60970649 273.98371383 58.07680347 268.97918797 53.81941032 C267.13715914 51.61774786 266.79169258 49.54166005 266.17922783 46.75002384 C265.80797783 45.12000431 265.80797783 45.12000431 265.42922783 43.45705509 C265.18172783 42.32139103 264.93422783 41.18572697 264.67922783 40.01564884 C262.86320403 28.04418371 262.86320403 28.04418371 256.36295891 18.61023808 C250.93533664 16.62911559 245.78739506 16.83999999 240.05203056 16.86159611 C238.78146812 16.85473286 237.51090569 16.84786961 236.20184135 16.84079838 C232.72875758 16.82290128 229.25592691 16.82402832 225.78281093 16.82974076 C222.88009934 16.83283655 219.9774361 16.82673609 217.07473141 16.82070202 C210.22711682 16.80667078 203.37962704 16.80820735 196.53201103 16.81960392 C189.47227545 16.83109399 182.41291936 16.81699168 175.35323375 16.79020745 C169.28511713 16.76804892 163.21711963 16.76141308 157.14896542 16.76728386 C153.5276019 16.77065309 149.90648185 16.76824047 146.28515244 16.75103283 C142.24886714 16.7326888 138.21332087 16.74675209 134.17703056 16.76393986 C132.97948647 16.75427189 131.78194237 16.74460392 130.54810905 16.73464298 C124.20391924 16.73704397 124.20391924 16.73704397 118.47233391 19.16419315 C115.45269943 22.70309591 114.69163357 26.10116038 113.86672783 30.57814884 C112.94648018 35.34474408 111.73179723 39.98549329 110.36672783 44.64064884 C110.08381889 45.67572575 110.08381889 45.67572575 109.79519463 46.73171329 C108.38608199 51.38377767 106.82975152 53.73820152 102.67922783 56.26564884 C97.00971658 58.76106837 91.52325189 58.5545985 85.44485283 58.54030704 C84.32220024 58.54541798 83.19954765 58.55052891 82.04287529 58.55579472 C78.33827166 58.56967544 74.63385435 58.56873526 70.92922783 58.56643009 C68.35142765 58.5703174 65.7736281 58.57465214 63.19582939 58.57941532 C57.79574038 58.58687394 52.39572345 58.58672705 46.99563408 58.58132267 C40.76189969 58.57527978 34.52839083 58.58760586 28.2946949 58.60889274 C22.28576074 58.62865411 16.27694447 58.63168015 10.26797295 58.62815762 C7.71629112 58.62867109 5.16460571 58.63391379 2.61294365 58.64396954 C-0.95368037 58.65630186 -4.51978156 58.64956129 -8.08639717 58.63796329 C-9.66692879 58.6494289 -9.66692879 58.6494289 -11.27939034 58.66112614 C-18.05876449 58.61238513 -22.6005632 57.84268892 -27.69577217 53.01564884 C-30.09227891 48.96002205 -29.86934824 45.47329933 -28.73874092 40.92336369 C-27.9269405 38.28552483 -27.04788099 35.68211324 -26.13327217 33.07814884 C-25.65180733 31.6836652 -25.65180733 31.6836652 -25.16061592 30.26101017 C-24.22913538 27.59022259 -23.27861421 24.92707762 -22.32077217 22.26564884 C-21.88120186 21.02557072 -21.44163155 19.78549259 -20.98874092 18.50783634 C-18.3773813 11.67812656 -14.97917734 5.1970191 -8.60668957 1.18703705 C-5.63243459 -0.01180043 -3.20761992 0.00859845 0 0 Z " fill="#AEBBC1" transform="translate(75.32077217102051,397.7343511581421)"/>
<path d="M0 0 C168.3 0 336.6 0 510 0 C510 10.52528185 509.2639719 13.45970412 502.51171875 20.56640625 C496.58125779 25.9214047 490.56645011 27.4512328 482.79519939 27.38311005 C481.99320607 27.38806956 481.19121275 27.39302908 480.36491659 27.39813888 C477.67863735 27.41108806 474.99285573 27.40271249 472.30656433 27.39440918 C470.36074051 27.3992984 468.4149196 27.40548835 466.46910363 27.41286707 C461.12263879 27.42928575 455.77632122 27.4269447 450.42983997 27.4214921 C444.6635099 27.41882428 438.8972193 27.43334906 433.13090515 27.44558716 C421.83404154 27.46665398 410.53722923 27.47118128 399.2403483 27.46939927 C390.05867162 27.46809225 380.87701096 27.47189273 371.6953373 27.47932434 C369.05173455 27.48142351 366.4081318 27.48352111 363.76452905 27.48561716 C362.44877813 27.48666069 361.13302722 27.48770422 359.77740506 27.48877937 C341.95817919 27.50255003 324.13895884 27.50990488 306.3197279 27.50545502 C305.62293215 27.50528306 304.92613641 27.50511111 304.20822564 27.50493394 C300.67662978 27.50404506 297.14503393 27.50310025 293.61343809 27.50213593 C292.91205892 27.5019449 292.21067975 27.50175387 291.48804667 27.50155704 C290.06968743 27.50116995 288.6513282 27.50077962 287.23296896 27.50038607 C265.16527956 27.49441658 243.09769505 27.50985217 221.0300293 27.54199219 C196.23325562 27.57807639 171.43654902 27.59735706 146.63974744 27.59245348 C133.51172982 27.59020785 120.38381617 27.59546565 107.25581932 27.62034607 C96.07925473 27.64134756 84.90285111 27.64496253 73.72627994 27.62604648 C68.02375927 27.61688159 62.32153882 27.61576905 56.61904144 27.63640213 C51.39733162 27.65508665 46.17616846 27.65063651 40.95447961 27.62785631 C39.06690486 27.62366423 37.17928841 27.62789095 35.29175773 27.64145225 C24.40158642 27.7143573 15.41740517 27.71432253 6.85014409 20.08567953 C2.37838671 15.64888266 0.54805753 11.22996005 0 5 C0 3.35 0 1.7 0 0 Z " fill="#9AAAB4" transform="translate(1,485)"/>
<path d="M0 0 C1.52764481 -0.00810448 1.52764481 -0.00810448 3.08615112 -0.01637268 C6.4489253 -0.02886917 9.81084498 -0.01236327 13.17358398 0.00561523 C15.5109817 0.00546028 17.84837967 0.00397191 20.18577576 0.00120544 C25.08246225 -0.00017893 29.97885597 0.01238728 34.87548828 0.03515625 C41.15607985 0.06355633 47.43618548 0.06079963 53.71681309 0.04806614 C58.5423346 0.04111613 63.36774352 0.04889029 68.19325066 0.06132317 C70.50933335 0.06584313 72.82542811 0.06616972 75.14151192 0.06225777 C78.37584404 0.05935187 81.60950288 0.07582293 84.84375 0.09765625 C85.80334122 0.0931546 86.76293243 0.08865295 87.75160217 0.08401489 C88.63336121 0.09391953 89.51512024 0.10382416 90.42359924 0.11402893 C91.18772408 0.11645883 91.95184893 0.11888872 92.73912907 0.12139225 C95.4491738 0.60800777 96.84447667 1.65343097 98.85717773 3.50170898 C99.46655273 5.76342773 99.46655273 5.76342773 99.60717773 8.18920898 C99.66389648 8.99745117 99.72061523 9.80569336 99.77905273 10.63842773 C99.80483398 11.25331055 99.83061523 11.86819336 99.85717773 12.50170898 C100.51717773 12.50170898 101.17717773 12.50170898 101.85717773 12.50170898 C102.36549641 15.33377016 102.86399279 18.16700633 103.35717773 21.00170898 C103.50026367 21.79319336 103.64334961 22.58467773 103.79077148 23.40014648 C106.01886252 36.34429439 106.01886252 36.34429439 103.54467773 40.93920898 C100.66845905 43.60237443 97.89388318 43.62892071 94.15748596 43.64215088 C93.19151489 43.64786102 92.22554382 43.65357117 91.2303009 43.65945435 C90.17203598 43.6605722 89.11377106 43.66169006 88.0234375 43.6628418 C86.90776398 43.6678067 85.79209045 43.67277161 84.64260864 43.67788696 C80.9445942 43.69251623 77.24662263 43.69931119 73.54858398 43.70483398 C70.98412576 43.71058393 68.41966754 43.71634168 65.85520935 43.72210693 C61.16370942 43.73127447 56.47222669 43.73757449 51.78071934 43.74060369 C44.87567149 43.74508675 37.97082135 43.7626484 31.06583363 43.79160428 C25.08414311 43.81581779 19.10254623 43.82354755 13.12080193 43.82527924 C10.57583476 43.82831195 8.03086855 43.83636115 5.4859333 43.84946442 C1.93057266 43.86646625 -1.62430302 43.86465901 -5.1796875 43.8581543 C-6.76404854 43.87197647 -6.76404854 43.87197647 -8.38041687 43.88607788 C-9.34920776 43.88050873 -10.31799866 43.87493958 -11.31614685 43.86920166 C-12.15661277 43.87066822 -12.99707869 43.87213478 -13.86301327 43.87364578 C-16.68525344 43.41321468 -18.0700138 42.44223663 -20.14282227 40.50170898 C-21.74246305 32.82259789 -19.46265667 24.11887901 -17.95532227 16.56420898 C-17.66044922 14.90035156 -17.66044922 14.90035156 -17.35961914 13.20288086 C-17.04541016 11.60476563 -17.04541016 11.60476563 -16.72485352 9.97436523 C-16.54156494 9.01796143 -16.35827637 8.06155762 -16.16943359 7.07617188 C-13.1817778 -0.41605889 -6.96795969 -0.07035123 0 0 Z " fill="#9AAAB4" transform="translate(221.142822265625,427.498291015625)"/>
</svg>
